<?xml version="1.0" encoding="utf-8"?>
<!-- Generator: Adobe Illustrator 21.1.0, SVG Export Plug-In . SVG Version: 6.00 Build 0)  -->
<svg version="1.1" id="Layer_1" xmlns="http://www.w3.org/2000/svg" xmlns:xlink="http://www.w3.org/1999/xlink" x="0px" y="0px"
	 viewBox="0 0 86 24.2" style="enable-background:new 0 0 86 24.2;" xml:space="preserve">
<style type="text/css">
	.st0{fill:#03428E;}
	.st1{fill:#FFFFFF;stroke:#000000;stroke-miterlimit:10;}
	.st2{fill:none;}
	.st3{font-family:'Futura-Bold';}
	.st4{font-size:11px;}
</style>
<g>
	<g>
		<path class="st0" d="M46.7,24.2h-8.4L62.1,0.3v8.5L46.7,24.2z"/>
		<path class="st0" d="M86,12.2c0,1.7-0.3,3.2-0.9,4.7c-0.6,1.4-1.5,2.7-2.6,3.8c-1.1,1.1-2.3,1.9-3.8,2.6c-1.4,0.6-3,0.9-4.7,0.9
			c-1.1,0-2.2-0.1-3.2-0.4c-1-0.3-2-0.7-2.9-1.2c-0.9-0.5-1.7-1.1-2.4-1.9c-0.7-0.7-1.3-1.5-1.9-2.4c-0.5-0.9-0.9-1.8-1.2-2.9
			c-0.3-1-0.4-2.1-0.4-3.2h6c0,0.8,0.2,1.6,0.5,2.3c0.3,0.7,0.7,1.4,1.3,1.9c0.5,0.5,1.2,1,1.9,1.3c0.7,0.3,1.5,0.5,2.3,0.5
			c0.8,0,1.6-0.2,2.3-0.5c0.7-0.3,1.4-0.7,1.9-1.3c0.5-0.5,1-1.2,1.3-1.9c0.3-0.7,0.5-1.5,0.5-2.3H86z"/>
	</g>
</g>
<rect x="305.1" y="-3.4" class="st1" width="65.8" height="50.6"/>
<rect x="0" y="1.3" class="st2" width="62.1" height="22.4"/>
<text transform="matrix(1 0 0 1 -4.525957e-04 10.3995)"><tspan x="0" y="0" class="st3 st4">ANCIENT</tspan><tspan x="0" y="12" class="st3 st4">FEUDS</tspan></text>
</svg>
