<?xml version="1.0" encoding="utf-8"?>
<!-- Generator: Adobe Illustrator 21.1.0, SVG Export Plug-In . SVG Version: 6.00 Build 0)  -->
<svg version="1.1" id="Layer_1" xmlns="http://www.w3.org/2000/svg" xmlns:xlink="http://www.w3.org/1999/xlink" x="0px" y="0px"
	 viewBox="0 0 48 24.2" style="enable-background:new 0 0 48 24.2;" xml:space="preserve">
<style type="text/css">
	.st0{fill:#03428E;}
</style>
<g>
	<g>
		<path class="st0" d="M8.7,24.2H0.3L24.2,0.3v8.5L8.7,24.2z"/>
		<path class="st0" d="M48,12.2c0,1.7-0.3,3.2-0.9,4.7c-0.6,1.4-1.5,2.7-2.6,3.8c-1.1,1.1-2.3,1.9-3.8,2.6c-1.4,0.6-3,0.9-4.7,0.9
			c-1.1,0-2.2-0.1-3.2-0.4c-1-0.3-2-0.7-2.9-1.2c-0.9-0.5-1.7-1.1-2.4-1.9c-0.7-0.7-1.3-1.5-1.9-2.4c-0.5-0.9-0.9-1.8-1.2-2.9
			c-0.3-1-0.4-2.1-0.4-3.2h6c0,0.8,0.2,1.6,0.5,2.3c0.3,0.7,0.7,1.4,1.3,1.9c0.5,0.5,1.2,1,1.9,1.3c0.7,0.3,1.5,0.5,2.3,0.5
			c0.8,0,1.6-0.2,2.3-0.5c0.7-0.3,1.4-0.7,1.9-1.3c0.5-0.5,1-1.2,1.3-1.9c0.3-0.7,0.5-1.5,0.5-2.3H48z"/>
	</g>
</g>
</svg>
